<?xml version="1.0" standalone="no"?>
<!DOCTYPE svg PUBLIC "-//W3C//DTD SVG 20010904//EN"
 "http://www.w3.org/TR/2001/REC-SVG-20010904/DTD/svg10.dtd">
<svg version="1.0" xmlns="http://www.w3.org/2000/svg"
 width="123.000000pt" height="90.000000pt" viewBox="0 0 123.000000 90.000000"
 preserveAspectRatio="xMidYMid meet">

<g transform="translate(0.000000,90.000000) scale(0.100000,-0.100000)"
fill="#1F64FF" stroke="#1F64FF">
<path d="M1170 520 l0 -380 30 0 c20 0 30 5 30 15 0 8 -9 15 -20 15 -20 0 -20
7 -20 365 0 237 -4 365 -10 365 -6 0 -10 -133 -10 -380z"/>
<path d="M266 768 c-23 -32 -23 -208 -1 -208 12 0 15 17 15 93 0 59 4 97 12
105 9 9 109 12 389 12 330 0 380 -2 393 -16 14 -13 16 -51 16 -258 0 -191 -3
-246 -13 -255 -9 -7 -99 -12 -262 -13 -188 -2 -249 -6 -253 -15 -3 -10 52 -13
252 -13 243 0 257 1 276 20 19 19 20 33 20 278 0 238 -1 260 -18 275 -17 15
-60 17 -415 17 l-396 0 -15 -22z"/>
<path d="M209 501 c-65 -66 -20 -171 73 -171 35 0 50 6 70 28 32 33 42 69 29
104 -28 73 -117 93 -172 39z m126 -16 c16 -15 25 -36 25 -55 0 -36 -38 -80
-69 -80 -61 0 -103 56 -82 109 22 53 87 66 126 26z"/>
<path d="M536 393 c-41 -43 -82 -88 -93 -100 -17 -22 -19 -23 -67 -8 -61 19
-129 19 -189 1 -75 -23 -102 -48 -121 -114 -18 -65 -20 -92 -7 -92 4 0 17 30
27 67 16 54 26 72 52 90 68 45 191 51 265 11 19 -10 30 -1 123 98 89 94 105
108 121 98 10 -6 19 -18 21 -27 2 -10 -55 -78 -142 -171 -131 -138 -167 -185
-135 -174 5 2 75 73 154 158 123 132 145 160 145 187 0 34 -21 53 -59 53 -12
0 -50 -31 -95 -77z"/>
</g>
</svg>
