<?xml version="1.0" standalone="no"?>
<!DOCTYPE svg PUBLIC "-//W3C//DTD SVG 20010904//EN"
 "http://www.w3.org/TR/2001/REC-SVG-20010904/DTD/svg10.dtd">
<svg version="1.0" xmlns="http://www.w3.org/2000/svg"
 width="102.000000pt" height="93.000000pt" viewBox="0 0 102.000000 93.000000"
 preserveAspectRatio="xMidYMid meet">

<g transform="translate(0.000000,93.000000) scale(0.100000,-0.100000)"
fill="#FF9100" stroke="#FF9100">
<path d="M448 843 c-17 -19 -392 -666 -403 -694 -3 -9 1 -24 10 -33 15 -14 60
-16 419 -16 418 0 426 1 426 42 0 17 -369 667 -398 701 -8 9 -20 17 -27 17 -7
0 -19 -8 -27 -17z m236 -348 c116 -203 196 -351 192 -360 -5 -13 -60 -15 -405
-15 -310 0 -400 3 -404 13 -5 15 393 707 408 707 5 0 99 -155 209 -345z"/>
<path d="M460 496 c0 -85 4 -157 9 -160 8 -6 21 142 21 252 0 48 -3 62 -15 62
-13 0 -15 -24 -15 -154z"/>
<path d="M461 260 c-17 -10 -7 -40 13 -40 7 0 16 6 19 14 8 19 -15 37 -32 26z"/>
</g>
</svg>
