<?xml version="1.0" standalone="no"?>
<!DOCTYPE svg PUBLIC "-//W3C//DTD SVG 20010904//EN"
 "http://www.w3.org/TR/2001/REC-SVG-20010904/DTD/svg10.dtd">
<svg version="1.0" xmlns="http://www.w3.org/2000/svg"
 width="108.000000pt" height="123.000000pt" viewBox="0 0 108.000000 123.000000"
 preserveAspectRatio="xMidYMid meet">

<g transform="translate(0.000000,123.000000) scale(0.100000,-0.100000)"
fill="#02A6F2" stroke="#02A6F2">
<path d="M1050 715 c0 -357 3 -455 13 -455 9 0 12 98 12 455 0 357 -3 455 -12
455 -10 0 -13 -98 -13 -455z"/>
<path d="M321 1101 c-12 -12 -21 -32 -21 -46 l0 -25 -104 0 c-82 0 -108 -3
-120 -16 -14 -14 -16 -68 -16 -443 0 -319 3 -430 12 -439 17 -17 709 -17 726
0 9 9 12 81 12 261 0 219 -2 248 -15 237 -12 -10 -15 -54 -17 -249 l-3 -236
-342 -3 -343 -2 -5 22 c-3 13 -4 205 -3 428 l3 405 83 3 82 3 0 -61 0 -60 185
0 185 0 0 60 0 60 80 0 80 0 0 -41 c0 -50 23 -50 28 0 6 60 -16 71 -135 71
-101 0 -103 0 -103 23 0 51 -20 62 -128 65 -91 3 -102 2 -121 -17z m217 -23
c7 -7 12 -27 12 -45 0 -29 3 -33 26 -33 24 0 25 -2 22 -47 l-3 -48 -162 -3
-163 -2 0 50 c0 47 2 50 25 50 22 0 25 4 25 33 0 50 13 57 115 57 57 0 95 -4
103 -12z"/>
<path d="M402 1038 c-28 -28 -3 -72 39 -66 30 4 47 33 33 56 -14 21 -55 27
-72 10z m46 -25 c-5 -25 -28 -28 -28 -4 0 12 6 21 16 21 9 0 14 -7 12 -17z"/>
<path d="M659 733 c-208 -210 -217 -220 -238 -282 -11 -36 -19 -66 -18 -68 2
-1 32 7 68 18 61 20 73 30 277 233 117 116 215 219 218 230 7 21 -50 86 -76
86 -8 0 -112 -98 -231 -217z m269 120 c-27 -29 -36 -29 -65 -1 l-23 22 27 28
27 28 28 -27 28 -27 -22 -23z m-209 -209 l-162 -163 -29 27 -28 27 162 162
162 163 28 -27 29 -27 -162 -162z m-201 -175 c3 -22 -2 -27 -35 -37 -20 -6
-38 -10 -40 -9 -1 2 3 20 9 40 10 33 15 38 37 35 19 -2 27 -10 29 -29z"/>
<path d="M160 705 c0 -13 27 -15 207 -13 154 2 207 6 211 16 3 9 -43 12 -207
12 -182 0 -211 -2 -211 -15z"/>
<path d="M160 555 c0 -13 19 -15 132 -13 94 2 133 7 136 16 3 9 -28 12 -132
12 -115 0 -136 -2 -136 -15z"/>
<path d="M160 405 c0 -13 16 -15 102 -13 70 2 103 7 106 16 3 9 -22 12 -102
12 -89 0 -106 -3 -106 -15z"/>
</g>
</svg>
