<?xml version="1.0" standalone="no"?>
<!DOCTYPE svg PUBLIC "-//W3C//DTD SVG 20010904//EN"
 "http://www.w3.org/TR/2001/REC-SVG-20010904/DTD/svg10.dtd">
<svg version="1.0" xmlns="http://www.w3.org/2000/svg"
 width="117.000000pt" height="114.000000pt" viewBox="0 0 117.000000 114.000000"
 preserveAspectRatio="xMidYMid meet">

<g transform="translate(0.000000,114.000000) scale(0.100000,-0.100000)"
fill="#AB47BD" stroke="#AB47BD">
<path d="M867 1002 c-55 -56 -57 -59 -57 -112 l0 -55 -142 -142 c-95 -95 -139
-146 -132 -153 6 -6 58 39 154 135 l145 145 55 0 c54 0 57 1 113 58 31 32 57
61 57 65 0 4 -25 7 -55 7 l-55 0 0 55 c0 38 -4 55 -13 55 -7 0 -38 -26 -70
-58z m14 -96 l-41 -41 0 35 c0 26 9 43 38 73 l37 38 3 -32 c3 -27 -4 -39 -37
-73z m129 17 c0 -4 -17 -24 -37 -45 -31 -31 -44 -38 -77 -38 l-40 0 44 45 c35
35 51 45 77 45 18 0 33 -3 33 -7z"/>
<path d="M427 990 c-140 -35 -267 -154 -319 -298 -28 -78 -28 -215 0 -293 97
-270 393 -386 652 -254 160 81 263 287 233 467 -13 78 -50 168 -69 168 -18 0
-18 2 14 -66 24 -53 27 -70 27 -170 0 -107 -1 -112 -38 -186 -127 -258 -458
-324 -672 -136 -190 167 -192 473 -5 641 60 54 132 90 214 107 90 18 166 7
289 -45 10 -4 17 -3 17 4 0 7 -26 24 -57 39 -48 22 -75 27 -153 29 -52 1 -112
-2 -133 -7z"/>
<path d="M452 826 c-125 -41 -202 -149 -202 -283 0 -89 29 -153 99 -216 105
-93 246 -101 363 -21 81 56 136 179 122 274 -8 52 -41 130 -56 130 -11 0 -9
-9 17 -80 20 -54 16 -150 -9 -198 -83 -161 -287 -203 -424 -87 -42 35 -82 113
-89 174 -23 197 190 353 371 272 33 -14 53 -18 60 -11 16 16 -81 53 -149 57
-33 1 -79 -4 -103 -11z"/>
<path d="M484 661 c-77 -35 -97 -140 -38 -202 46 -48 106 -55 173 -20 29 16
51 63 51 111 0 55 -22 48 -24 -8 -4 -75 -77 -121 -147 -92 -41 17 -59 47 -59
98 0 60 41 102 99 102 42 0 62 14 35 24 -25 10 -46 7 -90 -13z"/>
</g>
</svg>
